<?xml version="1.0" encoding="utf-8"?>
<!-- Generator: Adobe Illustrator 20.1.0, SVG Export Plug-In . SVG Version: 6.00 Build 0)  -->
<svg version="1.1" id="Layer_1" xmlns="http://www.w3.org/2000/svg" xmlns:xlink="http://www.w3.org/1999/xlink" x="0px" y="0px"
	 viewBox="0 0 830.7 75.4" style="enable-background:new 0 0 830.7 75.4;" xml:space="preserve">
<style type="text/css">
	.st0{fill:none;stroke:#FFFFFF;stroke-linecap:round;stroke-linejoin:round;}
	.st1{fill:none;stroke:#FFFFFF;stroke-linecap:round;stroke-linejoin:round;stroke-dasharray:4.0014,4.0014;}
	.st2{fill:#FFFFFF;}
</style>
<g>
	<g>
		<path class="st0" d="M0,51.7c0.6,0.1,1.3,0.3,2,0.4"/>
		<path class="st1" d="M5.9,52.9c120.7,23.3,409.4,33,604.1-1.2c30.1-5.3,40-49,12-48c-28,1-36,58,62,46c32.3-5.6,51.5-10.1,59.1-12
			"/>
		<path class="st0" d="M745.1,37.2c1.3-0.3,1.9-0.5,1.9-0.5"/>
	</g>
</g>
<g>
	<g>
		<path class="st2" d="M827.1,11.5c-6.5-0.2-12.9,2.7-19.1,4.4c-1.4,0.4-2.8,0.8-4.2,1.2c0,0,0-0.1-0.1-0.1
			c-6.3-5.1-12.6-10.8-19.3-15.4c-4.3-3-7.7,1.3-9.9,4.7c-0.3,0.5-0.2,1.2,0.2,1.5c5.3,4.7,11.5,8.2,16.4,13.2c-3,1-6.1,2-9.2,2.9
			c-2.6,0.8-12.8,5.2-15.2,3.1c-2-1.8-3.9-3.6-5.6-5.7c-2.8-3.5-7.6,1.9-9.8,3.2c-0.6,0.3-0.9,1.2-0.5,1.8c1.7,2.2,4.1,3.7,6.3,5.4
			c2.7,2.1-3.7,7.9-5.2,9.9c-0.5,0.7,0.1,1.7,0.8,1.9c2,0.4,4.9,2,7.1,1.2c3.3-1.2,4-5.4,6.6-6.4c7.8-1.2,15.5-2.7,23.2-4.3
			c-1.7,7.3-3.7,14.6-5.4,21.9c-0.2,0.7,0.3,1.4,0.9,1.5c6,1.7,9.8-1,12.5-6.2c1.6-3.1,2.6-6.5,3.7-9.7c1.4-3.9,3.6-7.4,4.5-11.4
			c4.8-1.2,9.6-2.5,14.5-3.9c3.3-1,9.2-3.1,10.2-7C831,16.9,830.8,11.6,827.1,11.5z M784.4,12.2c-2.3-1.6-4.5-3.2-6.7-5
			c-1.5-1.2,2.5-3.8,3.4-4c2.4-0.3,6.2,4.2,7.8,5.6c3.9,3.1,7.9,6.1,11.8,9.2c-2.3,0.7-4.6,1.4-6.9,2.2
			C791.1,17.1,787.8,14.6,784.4,12.2z M798.3,42.6c-1.9,5.5-4,13.9-11.2,12.8c1.7-7.1,3.6-14.1,5.2-21.1c0.1-0.3,0-0.5,0-0.7
			c3.6-0.8,7.1-1.6,10.7-2.5C801.8,35,799.6,38.7,798.3,42.6z M824.8,21.8c-4.9,3.4-12.1,5.1-19,6.5c-0.6-0.9-2.1-1-2.3,0.3
			c0,0,0,0.1,0,0.1c-2.9,0.6-5.7,1.1-8.1,1.7c-9.6,2.3-19.3,4-29,5.5c-0.2,0-0.3,0-0.5,0.1c-0.1,0-0.3,0.1-0.4,0.1
			c-0.7,0.2-1.7,0.4-2,1.1c-0.7,3-2.8,4.6-6.2,4.9c-2.4-0.5-2.3-0.1-1.3-1.2c2-2.5,6.3-6.3,4.3-9.7c-1-1.8-3.8-3.2-5.4-4.4
			c-1.7-1.3,0.7-1.9,2.1-2.9c1.4-1.1,4.5,2.3,5.8,3.4c4,3.7,5.7,3.2,11.1,1.8c9.9-2.6,19.6-5.9,29.3-9c2.8-0.9,5.7-1.6,8.5-2.5
			c2.4-0.7,4.8-1.5,7.2-2.1c0.9-0.2,1.7-0.4,2.6-0.6C825.4,13.2,826.5,15.5,824.8,21.8z"/>
	</g>
</g>
</svg>
