<?xml version="1.0" encoding="utf-8"?>
<!-- Generator: Adobe Illustrator 19.2.1, SVG Export Plug-In . SVG Version: 6.00 Build 0)  -->
<svg version="1.1" id="Layer_1" xmlns="http://www.w3.org/2000/svg" xmlns:xlink="http://www.w3.org/1999/xlink" x="0px" y="0px"
	 viewBox="0 0 57.4 57.8" style="enable-background:new 0 0 57.4 57.8;" xml:space="preserve">
<style type="text/css">
	.st0{fill:#FFFFFF;}
	.st1{fill:none;stroke:#FFFFFF;stroke-miterlimit:10;}
</style>
<g>
	<path class="st0" d="M40.2,27.6H16.6c-3.7,0-6.8,3-6.8,6.7v5.4c0,3.7,3,6.7,6.8,6.7h23.5c3.7,0,6.8-3,6.8-6.7v-5.4
		C46.9,30.6,43.9,27.6,40.2,27.6 M21.6,31.8h-2.2v10.8h-2.1V31.8h-2.2v-1.8h6.5V31.8z M27.8,42.6h-1.9v-1c-0.3,0.4-0.7,0.7-1.1,0.9
		c-0.4,0.2-0.7,0.3-1.1,0.3c-0.4,0-0.8-0.1-1-0.4c-0.2-0.3-0.3-0.7-0.3-1.3v-7.8h1.9v7.2c0,0.2,0,0.4,0.1,0.5
		c0.1,0.1,0.2,0.1,0.4,0.1c0.1,0,0.3-0.1,0.5-0.2c0.2-0.1,0.4-0.3,0.6-0.5v-7.1h1.9V42.6z M34.6,40.6c0,0.7-0.1,1.2-0.4,1.5
		c-0.3,0.3-0.7,0.5-1.3,0.5c-0.4,0-0.7-0.1-1-0.2c-0.3-0.1-0.6-0.3-0.8-0.6v0.7h-1.9V29.9h1.9V34c0.3-0.3,0.5-0.5,0.8-0.6
		c0.3-0.2,0.6-0.2,0.9-0.2c0.6,0,1,0.2,1.4,0.6c0.3,0.4,0.5,1,0.5,1.7V40.6z M41.1,38.1h-3.6v1.8c0,0.5,0.1,0.8,0.2,1
		c0.1,0.2,0.3,0.3,0.6,0.3c0.3,0,0.5-0.1,0.7-0.2c0.1-0.2,0.2-0.5,0.2-1.1v-0.4h1.9v0.5c0,0.9-0.2,1.7-0.7,2.2
		c-0.5,0.5-1.2,0.7-2.1,0.7c-0.8,0-1.5-0.3-2-0.8c-0.5-0.5-0.7-1.2-0.7-2.1v-4.2c0-0.8,0.3-1.5,0.8-2c0.5-0.5,1.2-0.8,2-0.8
		c0.9,0,1.5,0.2,2,0.7c0.5,0.5,0.7,1.1,0.7,2V38.1z"/>
	<path class="st0" d="M38.3,34.6c-0.3,0-0.5,0.1-0.6,0.3c-0.1,0.2-0.2,0.4-0.2,0.8v0.9h1.7v-0.9c0-0.4-0.1-0.7-0.2-0.8
		C38.8,34.7,38.6,34.6,38.3,34.6"/>
	<path class="st0" d="M31.8,34.6c-0.1,0-0.3,0-0.4,0.1c-0.1,0.1-0.3,0.2-0.4,0.3v5.8c0.1,0.1,0.3,0.3,0.4,0.3
		c0.1,0.1,0.3,0.1,0.4,0.1c0.2,0,0.4-0.1,0.5-0.2c0.1-0.1,0.2-0.3,0.2-0.6v-4.8c0-0.3-0.1-0.6-0.2-0.7
		C32.3,34.7,32.1,34.6,31.8,34.6"/>
	<path class="st0" d="M19.7,24.3h2.4v-5.8l2.8-8.1h-2.4L21,16h-0.1l-1.5-5.6h-2.4l2.8,8.4V24.3z"/>
	<path class="st0" d="M28.1,24.6c1,0,1.7-0.2,2.3-0.8c0.6-0.5,0.8-1.2,0.8-2.1v-5.3c0-0.8-0.3-1.4-0.8-1.9c-0.6-0.5-1.3-0.7-2.1-0.7
		c-1,0-1.7,0.2-2.3,0.7C25.3,15,25,15.6,25,16.4v5.3c0,0.9,0.3,1.6,0.8,2.1C26.4,24.3,27.2,24.6,28.1,24.6 M27.2,16.3
		c0-0.2,0.1-0.4,0.2-0.5c0.2-0.1,0.4-0.2,0.6-0.2c0.3,0,0.5,0.1,0.7,0.2c0.2,0.1,0.2,0.3,0.2,0.5v5.6c0,0.3-0.1,0.5-0.2,0.6
		c-0.2,0.2-0.4,0.2-0.7,0.2c-0.3,0-0.5-0.1-0.7-0.2c-0.1-0.2-0.2-0.4-0.2-0.6V16.3z"/>
	<path class="st0" d="M34.3,24.5c0.4,0,0.8-0.1,1.2-0.3c0.4-0.2,0.8-0.5,1.2-0.9v1.1h2.1V14.1h-2.1v7.8c-0.2,0.2-0.4,0.4-0.7,0.6
		c-0.2,0.1-0.4,0.2-0.6,0.2c-0.2,0-0.3-0.1-0.4-0.2C35,22.3,35,22.2,35,21.9v-7.9h-2.1v8.6c0,0.6,0.1,1.1,0.4,1.4
		C33.5,24.3,33.9,24.5,34.3,24.5"/>
</g>
<circle class="st1" cx="28.4" cy="28.4" r="28.4"/>
</svg>
