<?xml version="1.0" encoding="utf-8"?>
<!-- Generator: Adobe Illustrator 19.2.1, SVG Export Plug-In . SVG Version: 6.00 Build 0)  -->
<svg version="1.1" id="Layer_1" xmlns="http://www.w3.org/2000/svg" xmlns:xlink="http://www.w3.org/1999/xlink" x="0px" y="0px"
	 viewBox="0 0 57.4 57.8" style="enable-background:new 0 0 57.4 57.8;" xml:space="preserve">
<style type="text/css">
	.st0{fill-rule:evenodd;clip-rule:evenodd;fill:#FFFFFF;}
	.st1{fill:none;stroke:#FFFFFF;stroke-miterlimit:10;}
</style>
<path class="st0" d="M42.8,11H15.9c-2.5,0-5.9,2-5.9,4.5v26.1c0,2.5,3.4,4.5,5.9,4.5h26.9c2.6,0,4.2-2,4.2-4.5V15.5
	C47,13,45.4,11,42.8,11z M35,16.4c0-0.9,1.7-1.4,2.6-1.4h4.1c0.9,0,1.3,0.6,1.3,1.4v3.8c0,0.9-0.4,1.8-1.3,1.8h-4.1
	c-0.9,0-2.6-0.9-2.6-1.8V16.4z M29.4,21.6c4,0,7.3,3.1,7.3,6.8c0,3.8-3.3,6.8-7.3,6.8c-4,0-7.3-3.1-7.3-6.8
	C22.2,24.7,25.4,21.6,29.4,21.6z M43,40.6c0,0.8-0.3,1.4-1.1,1.4H16.8C16,42,15,41.4,15,40.6V26h3.6c-0.3,1-0.5,1.9-0.5,2.9
	c0,5.8,5,10.5,11.2,10.5c6.2,0,11.2-4.7,11.2-10.5c0-1-0.2-1.9-0.5-2.9H43V40.6z"/>
<circle class="st1" cx="29.4" cy="28.4" r="28.4"/>
</svg>
