<?xml version="1.0" encoding="utf-8"?>
<!-- Generator: Adobe Illustrator 20.1.0, SVG Export Plug-In . SVG Version: 6.00 Build 0)  -->
<svg version="1.1" id="Capa_1" xmlns="http://www.w3.org/2000/svg" xmlns:xlink="http://www.w3.org/1999/xlink" x="0px" y="0px"
	 viewBox="0 0 326.1 392.5" style="enable-background:new 0 0 326.1 392.5;" xml:space="preserve">
<style type="text/css">
	.st0{fill:#FFFFFF;}
	.st1{fill:#00A551;}
	.st2{fill:#A5CD39;}
</style>
<g>
	<g>
		<path class="st0" d="M293.5,65.2c3.3-4.4,5.2-9.9,5.2-15.8c0-14.7-11.9-26.7-26.7-26.7c-6.3,0-12.1,2.2-16.7,5.9
			C229.1,10.6,197.4,0,163.1,0C73,0,0,73,0,163.1c0,90.1,73,163.1,163.1,163.1c90.1,0,163.1-73,163.1-163.1
			C326.1,126.4,314,92.5,293.5,65.2z M163.1,301.8c-76.6,0-138.7-62.1-138.7-138.7c0-76.6,62.1-138.7,138.7-138.7
			c30.9,0,59.4,10.1,82.5,27.2c1,13.4,12,24,25.5,24.5c19.2,23.8,30.7,54.1,30.7,87C301.8,239.7,239.7,301.8,163.1,301.8z"/>
	</g>
	<path class="st1" d="M16,163.1C16,81.8,81.8,16,163.1,16c81.2,0,147.1,65.9,147.1,147.1c0,81.2-65.8,147.1-147.1,147.1
		C81.8,310.1,16,244.3,16,163.1"/>
	<path class="st0" d="M83.4,238.6c1-1,2.1-1.7,3.3-2.2c1.2-0.5,2.5-0.7,3.8-0.7c1.3,0,2.5,0.3,3.8,0.7c1.2,0.5,2.3,1.2,3.3,2.2
		L99,240l-2.8,2.8l-1.4-1.4c-0.6-0.6-1.3-1-2-1.3c-0.7-0.3-1.5-0.4-2.3-0.4c-0.8,0-1.5,0.1-2.3,0.4c-0.7,0.3-1.4,0.7-2,1.3
		c-0.6,0.6-1,1.2-1.3,2c-0.3,0.7-0.4,1.5-0.4,2.3c0,0.8,0.2,1.5,0.4,2.3c0.3,0.7,0.7,1.4,1.3,2c1.2,1.2,2.6,1.8,4.3,1.8
		c0.8,0,1.6-0.1,2.3-0.4c0.8-0.3,1.4-0.7,2-1.3l1.4-1.4l2.8,2.8l-1.4,1.4c-1,1-2.1,1.7-3.3,2.2c-1.2,0.5-2.5,0.7-3.8,0.7
		c-1.3,0-2.5-0.2-3.8-0.7c-1.2-0.5-2.3-1.2-3.3-2.2c-1-1-1.7-2.1-2.2-3.3c-0.5-1.2-0.7-2.5-0.7-3.8c0-1.3,0.2-2.6,0.7-3.8
		C81.7,240.7,82.5,239.6,83.4,238.6"/>
	<path class="st0" d="M106.3,241.4c-1.2,1.2-1.8,2.6-1.8,4.3c0,0.9,0.2,1.8,0.6,2.6c0.4-0.4,0.9-0.9,1.6-1.6
		c0.7-0.7,1.5-1.5,2.3-2.3c0.8-0.8,1.6-1.6,2.4-2.3c0.8-0.7,1.4-1.3,1.8-1.7c-1.1-0.6-2.3-0.8-3.6-0.6
		C108.3,239.9,107.2,240.5,106.3,241.4 M116.2,248.6l2.8,2.8l-1.4,1.4c-1,1-2,1.7-3.3,2.2c-1.2,0.5-2.5,0.8-3.8,0.8
		c-1.3,0-2.6-0.3-3.8-0.8c-1.2-0.5-2.3-1.2-3.3-2.2c-1-1-1.7-2.1-2.2-3.3c-0.5-1.2-0.7-2.5-0.7-3.8c0-1.3,0.2-2.5,0.7-3.7
		c0.5-1.2,1.2-2.3,2.2-3.3c1-1,2.1-1.7,3.3-2.2c1.2-0.5,2.5-0.7,3.8-0.7c1.3,0,2.5,0.2,3.8,0.7c1.2,0.5,2.3,1.2,3.3,2.2l1.4,1.4
		l-11.1,11.1c1.1,0.6,2.3,0.8,3.6,0.6c1.3-0.2,2.4-0.8,3.3-1.7L116.2,248.6z"/>
	<path class="st0" d="M121.2,241.8c0.5-1.2,1.2-2.3,2.1-3.2c0.9-0.9,2-1.6,3.2-2.1c1.2-0.5,2.5-0.8,3.9-0.8c1.4,0,2.7,0.3,3.9,0.8
		c1.2,0.5,2.3,1.2,3.2,2.1c0.9,0.9,1.6,2,2.2,3.2c0.5,1.2,0.8,2.5,0.8,3.9v10h-4v-10c0-0.8-0.2-1.6-0.5-2.3
		c-0.3-0.7-0.7-1.4-1.3-1.9c-0.5-0.6-1.2-1-1.9-1.3c-0.7-0.3-1.5-0.5-2.4-0.5c-0.8,0-1.6,0.2-2.3,0.5c-0.7,0.3-1.4,0.7-1.9,1.3
		c-0.5,0.5-1,1.2-1.3,1.9c-0.3,0.7-0.5,1.5-0.5,2.3v10h-4v-10C120.4,244.3,120.6,243,121.2,241.8"/>
	<path class="st0" d="M144.7,238.6c1-1,2.1-1.7,3.3-2.2c1.2-0.5,2.5-0.7,3.8-0.7c1.3,0,2.5,0.3,3.8,0.7c1.2,0.5,2.3,1.2,3.3,2.2
		l1.4,1.4l-2.8,2.8l-1.4-1.4c-0.6-0.6-1.3-1-2-1.3c-0.7-0.3-1.5-0.4-2.3-0.4c-0.8,0-1.5,0.1-2.3,0.4c-0.7,0.3-1.4,0.7-2,1.3
		c-0.6,0.6-1,1.2-1.3,2c-0.3,0.7-0.5,1.5-0.5,2.3c0,0.8,0.2,1.5,0.5,2.3c0.3,0.7,0.7,1.4,1.3,2c1.2,1.2,2.6,1.8,4.3,1.8
		c0.8,0,1.6-0.1,2.3-0.4c0.7-0.3,1.4-0.7,1.9-1.3l1.4-1.4l2.8,2.8l-1.4,1.4c-1,1-2.1,1.7-3.3,2.2c-1.2,0.5-2.5,0.7-3.8,0.7
		c-1.3,0-2.5-0.2-3.8-0.7c-1.2-0.5-2.3-1.2-3.3-2.2c-1-1-1.7-2.1-2.2-3.3c-0.5-1.2-0.7-2.5-0.7-3.8c0-1.3,0.2-2.6,0.7-3.8
		C143,240.7,143.7,239.6,144.7,238.6"/>
	<path class="st0" d="M165.7,245.7c0,0.8,0.2,1.6,0.5,2.4c0.3,0.7,0.7,1.4,1.3,1.9c0.5,0.6,1.2,1,1.9,1.3c0.8,0.3,1.5,0.5,2.4,0.5
		c0.8,0,1.6-0.2,2.3-0.5c0.7-0.3,1.4-0.7,1.9-1.3c0.5-0.5,1-1.2,1.3-1.9c0.3-0.7,0.5-1.5,0.5-2.4c0-0.8-0.2-1.6-0.5-2.3
		c-0.3-0.7-0.7-1.4-1.3-1.9c-0.6-0.6-1.2-1-1.9-1.3c-0.7-0.3-1.5-0.5-2.3-0.5c-0.8,0-1.6,0.2-2.4,0.5c-0.7,0.3-1.4,0.7-1.9,1.3
		c-0.5,0.6-1,1.2-1.3,1.9C165.9,244.1,165.7,244.9,165.7,245.7 M161.8,245.7c0-1.4,0.3-2.7,0.8-3.9c0.5-1.2,1.2-2.3,2.1-3.2
		c0.9-0.9,2-1.6,3.2-2.1c1.2-0.5,2.5-0.8,3.9-0.8c1.4,0,2.7,0.3,3.9,0.8c1.2,0.5,2.3,1.2,3.2,2.1c0.9,0.9,1.6,2,2.2,3.2
		c0.5,1.2,0.8,2.5,0.8,3.9c0,1.4-0.3,2.7-0.8,3.9c-0.5,1.2-1.2,2.3-2.2,3.2c-0.9,0.9-2,1.6-3.2,2.2c-1.2,0.5-2.5,0.8-3.9,0.8
		c-1.4,0-2.7-0.3-3.9-0.8c-1.2-0.5-2.3-1.2-3.2-2.2c-0.9-0.9-1.6-2-2.1-3.2C162,248.4,161.8,247.1,161.8,245.7"/>
	<path class="st0" d="M201.1,235.6v4h-12.1c-0.6,0-1,0.2-1.4,0.6c-0.4,0.4-0.6,0.9-0.6,1.4c0,0.6,0.2,1,0.6,1.4
		c0.4,0.4,0.9,0.6,1.4,0.6h8c0.8,0,1.6,0.2,2.3,0.5c0.7,0.3,1.4,0.7,1.9,1.3c0.5,0.5,1,1.2,1.3,1.9c0.3,0.7,0.5,1.5,0.5,2.3
		c0,0.8-0.1,1.6-0.5,2.3c-0.3,0.7-0.7,1.4-1.3,1.9c-0.6,0.5-1.2,1-1.9,1.3c-0.7,0.3-1.5,0.5-2.3,0.5h-12v-4h12
		c0.6,0,1.1-0.2,1.5-0.6c0.4-0.4,0.6-0.9,0.6-1.5c0-0.6-0.2-1-0.6-1.4c-0.4-0.4-0.9-0.6-1.5-0.6h-8c-0.8,0-1.6-0.2-2.3-0.5
		c-0.7-0.3-1.3-0.7-1.9-1.3c-0.5-0.5-1-1.2-1.3-1.9c-0.3-0.7-0.5-1.5-0.5-2.3c0-0.8,0.2-1.6,0.5-2.3c0.3-0.7,0.7-1.4,1.3-1.9
		c0.5-0.5,1.2-1,1.9-1.3c0.7-0.3,1.5-0.5,2.3-0.5H201.1z"/>
	<path class="st0" d="M224.4,235.6v10c0,1.4-0.3,2.7-0.8,3.9c-0.5,1.2-1.2,2.3-2.2,3.2c-0.9,0.9-2,1.6-3.2,2.2
		c-1.2,0.5-2.5,0.8-3.9,0.8c-1.4,0-2.7-0.3-3.9-0.8c-1.2-0.5-2.3-1.2-3.2-2.2c-0.9-0.9-1.6-2-2.1-3.2c-0.5-1.2-0.8-2.5-0.8-3.9v-10
		h4v10c0,0.8,0.2,1.6,0.5,2.4c0.3,0.7,0.7,1.4,1.3,1.9c0.5,0.6,1.2,1,1.9,1.3c0.7,0.3,1.5,0.5,2.3,0.5c0.8,0,1.6-0.2,2.4-0.5
		c0.7-0.3,1.4-0.7,1.9-1.3c0.5-0.5,1-1.2,1.3-1.9c0.3-0.7,0.5-1.5,0.5-2.4v-10H224.4z"/>
	<path class="st0" d="M235.6,251.7c0.8,0,1.6-0.2,2.3-0.5c0.7-0.3,1.4-0.7,1.9-1.3c0.5-0.5,1-1.2,1.3-1.9c0.3-0.7,0.5-1.5,0.5-2.4
		v-6h-6c-0.8,0-1.6,0.2-2.4,0.5c-0.7,0.3-1.4,0.7-1.9,1.3c-0.5,0.5-1,1.2-1.3,1.9c-0.3,0.7-0.5,1.5-0.5,2.3c0,0.8,0.2,1.6,0.5,2.4
		c0.3,0.7,0.7,1.4,1.3,1.9c0.6,0.5,1.2,1,1.9,1.3C234,251.5,234.8,251.7,235.6,251.7 M245.6,227.6v18c0,1.4-0.3,2.7-0.8,3.9
		c-0.5,1.2-1.2,2.3-2.1,3.2c-0.9,0.9-2,1.6-3.2,2.2c-1.2,0.5-2.5,0.8-3.9,0.8c-1.4,0-2.7-0.3-3.9-0.8c-1.2-0.5-2.3-1.2-3.2-2.2
		c-0.9-0.9-1.6-2-2.2-3.2c-0.5-1.2-0.8-2.5-0.8-3.9c0-1.4,0.3-2.7,0.8-3.9c0.5-1.2,1.2-2.3,2.2-3.2c0.9-0.9,2-1.6,3.2-2.1
		c1.2-0.5,2.5-0.8,3.9-0.8h6v-8H245.6z"/>
	<path class="st0" d="M268.8,133.1c3.8,0,7.4,0.8,10.8,2.3c3.4,1.5,6.4,3.6,8.9,6.2c2.6,2.6,4.6,5.6,6.1,9c1.5,3.4,2.3,7.1,2.3,11
		c0,3.9-0.7,7.6-2.2,11c-1.5,3.4-3.5,6.4-6,9c-2.5,2.6-5.5,4.6-8.9,6.1c-3.4,1.5-7.1,2.2-11.1,2.2c-3.9,0-7.6-0.7-11-2.1
		c-3.4-1.4-6.4-3.4-9-5.9c-2.6-2.5-4.6-5.5-6.1-9c-1.5-3.4-2.2-7.2-2.2-11.3c0-3.9,0.7-7.6,2.2-11c1.4-3.4,3.4-6.4,6-8.9
		c2.6-2.5,5.6-4.6,9-6.1C261.1,134.1,264.9,133.2,268.8,133.1 M268.7,144.8c-2.3,0-4.4,0.4-6.5,1.3c-2.1,0.9-3.8,2-5.4,3.5
		c-1.5,1.5-2.7,3.3-3.6,5.3c-0.9,2-1.3,4.2-1.3,6.6c0,2.2,0.4,4.4,1.3,6.4c0.9,2,2.1,3.8,3.6,5.4c1.5,1.5,3.3,2.8,5.4,3.6
		c2.1,0.9,4.2,1.3,6.5,1.3c2.3,0,4.4-0.5,6.5-1.3c2.1-0.9,3.9-2.1,5.4-3.6c1.5-1.5,2.7-3.3,3.6-5.4c0.9-2,1.3-4.2,1.3-6.4
		c-0.2-4.6-1.9-8.4-4.9-11.5c-3-3.1-7-4.8-11.8-5.2H268.7z"/>
	<path class="st0" d="M114.2,165.5c0,7.1-5.8,12.6-13,12.6c-4.2,0-7.9-1.7-10.3-4.7c-0.7-0.8-1.2-1.7-1.7-2.7
		c-0.1-0.3-0.2-0.7-0.4-1c0-0.1-0.1-0.3-0.1-0.5c0-0.1-0.1-0.2-0.1-0.3c-0.3-1.1-0.5-2.2-0.5-3.4c0-0.2,0-0.4,0-0.6
		c0-0.5,0-0.9,0-1.4v-24.5c0-1.6-0.6-3-1.8-4.1c-1.2-1.2-2.5-1.8-4.1-1.9c-1.7,0.1-3.1,0.7-4.2,1.8c-1.2,1.1-1.7,2.5-1.7,4.1v25.6
		c-0.1,4.6,1.1,8.3,2.3,10.9c0.1,0.2,0.2,0.4,0.3,0.5c0.3,0.6,0.6,1.1,0.9,1.7c0.2,0.3,0.3,0.6,0.5,0.8c0.2,0.3,0.4,0.6,0.6,0.9
		c1.7,2.4,4.1,4.5,6.5,6.2c0.1,0.1,0.2,0.1,0.3,0.2c1.8,1.2,3.8,2.1,5.8,2.8c1.7,0.5,3.6,0.9,5.9,1.1c0.3,0,0.6,0,0.9,0
		c0.3,0,0.6,0,0.9,0c0.1,0,0.2,0,0.3,0c0.7,0,1.4,0,2.1-0.1c0.8-0.1,1.6-0.2,2.3-0.3c0,0,0.1,0,0.1,0c1.8-0.4,3.4-0.9,4.8-1.5
		c2.5-1,4.7-2.5,6.7-4.3c1.8-1.8,3.5-3.7,4.8-5.8c0,0,0-0.1,0.1-0.1c0.3-0.4,0.5-0.9,0.7-1.3c0.2-0.3,0.4-0.7,0.6-1
		c1.6-3.4,2.4-7,2.4-10.8V139c0-1.6-0.6-2.9-1.7-4.1c-1.1-1.1-2.6-1.8-4.2-1.8c-1.5,0.1-2.9,0.7-4.1,1.9c-1.2,1.2-1.8,2.6-1.8,4.1
		v24.5"/>
	<path class="st0" d="M193.6,183v-30.8c0-11-6.6-19.2-17.5-19.2c-4.6,0-10.1,2.9-12.5,6l-2,2.8l-2.1-3.1c-2.7-2.8-6.8-5.8-11.9-5.8
		c-11.8,0-17.9,8.5-17.9,19.3v31.1c0,3.6,2.4,6.6,6,6.6c3.6,0,6.1-2.9,6.1-6.6c0-0.1,0-0.2,0-0.3v-32.1c0-3.6,3-6.3,6.6-6.3
		c3.6,0,7,2.7,7,6.3v26.3c0,0,0,0,0,0v5.8h0c0,0.1,0,0.2,0,0.3c0,3.6,2.8,6.6,6.3,6.6c3.5,0,6.3-2.9,6.3-6.6c0-0.1,0-0.2,0-0.3v-5.7
		V164v-13c0-3.7,3.2-6.4,6.8-6.4c3.7,0,6.8,2.7,6.8,6.4v32h0c0,0.1,0,0.2,0,0.3c0,3.6,2.6,6.6,6.2,6.6c3.6,0,5.9-2.9,5.9-6.6
		C193.6,183.2,193.6,183.1,193.6,183"/>
	<path class="st0" d="M209.1,167.2l12.5,0c2.5,0,5.6,2,5.8,5.4c0.2,3.2-2.2,6.3-5.8,6.3l-12.5,0L209.1,167.2z M220.1,144.1
		c3.7-0.1,6.6,2.4,6.6,5.7c0,3.9-2.9,6.1-6.6,6.1l-11,0l0-11.8L220.1,144.1z M239.9,174.6c0-6.4-4.3-11.9-10.3-14.2l0.2-0.1
		c5.2-2.6,8.1-7.2,8.1-12.9c0-7.9-6-14.3-15.1-14.3c0,0,0,0,0,0h-19c-3.4,0.1-6.5,2.9-6.5,6.1c0,0,0,0.1,0,0.1l0,44c0,0,0,0.2,0,0.3
		c0,3.2,3,6.4,6.4,6.4l18.7,0c0.4,0,0.7,0,1.1,0c0.4,0,0.9,0,1.3-0.1c1.3,0,2.5-0.3,3.6-0.6C235,187.3,239.9,181.5,239.9,174.6"/>
	<path class="st0" d="M72.8,169.3v-1.1v-5.6v-15.1v-5.6c0-1.3,0.1-2.6-0.2-3.8c-0.4-1.7-1.5-3.1-3-4c-1.1-0.7-2.5-1-3.8-1h-3.9H47.9
		h-1.2c-1.5,0-3,0.6-4.1,1.6c-2.7,2.6-2.3,7.1,0.9,9.1c1.6,1,3.5,0.9,5.3,0.9H56h5.1c0.1,0,0,2.3,0,2.5v14.3v5.9c0,0.6,0,1.2,0,1.8
		c0,0,0,0,0,0c0,0,0,0.1,0,0.1c0,5.6-4.6,10.1-10.2,10.1c-5.5,0-10-4.4-10.1-9.8c0-0.1,0-0.1,0-0.2c0-0.1,0-0.2,0-0.3c0,0,0,0,0,0h0
		c-0.2-3.1-2.7-5.5-5.8-5.5c-3.2,0-5.8,2.6-5.8,5.8c0,0.3,0,0.6,0.1,0.9C30,182.2,39.1,190,51.5,190C73.3,190,72.9,166.9,72.8,169.3
		"/>
	<g>
		<path class="st0" d="M55.7,354.9l-10.3,28.8h-5.8l-10.4-28.8H36l6.4,21.5l5.9-19.4c0.4-1.4,1.3-2.2,3-2.2H55.7z"/>
		<path class="st0" d="M63.8,384.3c-7.1-0.2-10.6-4.2-10.6-11.8c0-7.6,3.6-11.5,10.7-11.5c7.4,0,10.9,4.4,10.5,13.2H59.3
			c0.2,3.4,1.8,5.2,4.6,5.2c1.4,0,2.6-0.6,3.8-1.6c0.5-0.6,1.2-0.8,2-0.8H74C72.7,381.6,69.5,384.3,63.8,384.3z M59.3,370.1h8.8
			c-0.4-3-1.8-4.5-4.3-4.5C61.3,365.6,59.8,367.1,59.3,370.1z"/>
		<path class="st0" d="M93.1,383.7c-1.9-0.1-2.9-1-2.9-2.8v-11.5c-0.1-2.3-1.5-3.5-4.1-3.5c-2.6,0-3.9,1.1-4,3.5v14.3h-6v-13.2
			c0-6.4,3.4-9.6,10-9.6s9.9,3.2,9.9,9.6v13.2H93.1z"/>
		<path class="st0" d="M114.8,389.7c0,1.9-1,2.8-2.9,2.8h-3v-21.5c0.3-6.7,3.9-10,10.9-10c7.2,0,10.9,3.8,10.9,11.3
			c0,7.6-3.1,11.6-9.3,11.8c-2.9,0-5.1-1.1-6.6-3.5V389.7z M119.7,379.1c3.2,0,4.8-2.2,4.9-6.5c0-4.5-1.7-6.8-5-6.8
			c-3.4,0-4.9,2.2-4.9,6.8C114.9,377,116.6,379.1,119.7,379.1z"/>
		<path class="st0" d="M138.7,367.2h-5.9c0.7-4.2,3.8-6.2,9.1-6.2c6.4,0,9.7,2,9.8,6.2v7.6c0,6.2-3.9,9-10.2,9.4
			c-5.6,0.4-9.5-2.1-9.5-7c0.1-5.4,4.2-6.8,10.1-7.4c2.5-0.3,3.8-1,3.8-2.2c-0.1-1.3-1.4-1.9-3.8-1.9
			C140.1,365.6,139,366.1,138.7,367.2z M146.1,374.5v-2.1c-1.4,0.6-3,1-4.7,1.4c-2.3,0.4-3.5,1.5-3.5,3.1c0.1,1.8,1.1,2.6,3,2.6
			C144.1,379.6,146.1,377.7,146.1,374.5z"/>
		<path class="st0" d="M153.8,372.2c0.2-7.3,4.2-10.9,12-10.9h0.8v5.9h-2c-3.3,0-4.9,1.7-4.9,4.9v11.7h-6V372.2z"/>
		<path class="st0" d="M174.6,367.2h-5.9c0.7-4.2,3.7-6.2,9.1-6.2c6.4,0,9.7,2,9.8,6.2v7.6c0,6.2-3.9,9-10.2,9.4
			c-5.6,0.4-9.5-2.1-9.5-7c0.1-5.4,4.2-6.8,10.1-7.4c2.5-0.3,3.8-1,3.8-2.2c-0.1-1.3-1.4-1.9-3.8-1.9
			C176.1,365.6,174.9,366.1,174.6,367.2z M182,374.5v-2.1c-1.4,0.6-3,1-4.7,1.4c-2.3,0.4-3.5,1.5-3.5,3.1c0.1,1.8,1.1,2.6,3,2.6
			C180,379.6,182,377.7,182,374.5z"/>
		<path class="st0" d="M211.4,384.3c-7.1,0-10.7-3.9-10.9-11.6c0-7.7,3.6-11.5,10.8-11.7c5.6,0,9,2.4,10,7.3h-6.4
			c-0.7-1.5-1.9-2.3-3.8-2.3c-3.1,0-4.6,2.2-4.6,6.7s1.6,6.7,4.9,6.7c1.4,0,2.6-0.6,3.5-1.6c0.6-0.6,1.2-0.8,2-0.8h4.4
			C220.2,381.5,216.8,384.4,211.4,384.3z"/>
		<path class="st0" d="M223.6,372.2c0.2-7.3,4.2-10.9,12-10.9h0.8v5.9h-2c-3.3,0-4.9,1.7-4.9,4.9v11.7h-6V372.2z"/>
		<path class="st0" d="M248.8,384.3c-7.1-0.2-10.6-4.2-10.6-11.8c0-7.6,3.6-11.5,10.7-11.5c7.4,0,10.9,4.4,10.5,13.2h-15.1
			c0.2,3.4,1.8,5.2,4.6,5.2c1.4,0,2.6-0.6,3.8-1.6c0.5-0.6,1.2-0.8,2-0.8h4.3C257.7,381.6,254.5,384.3,248.8,384.3z M244.3,370.1
			h8.8c-0.4-3-1.8-4.5-4.3-4.5C246.3,365.6,244.8,367.1,244.3,370.1z"/>
		<path class="st0" d="M271.7,384.3c-7.1-0.2-10.6-4.2-10.6-11.8c0-7.6,3.6-11.5,10.7-11.5c7.4,0,10.9,4.4,10.5,13.2h-15.1
			c0.2,3.4,1.8,5.2,4.6,5.2c1.4,0,2.6-0.6,3.8-1.6c0.5-0.6,1.2-0.8,2-0.8h4.3C280.6,381.6,277.4,384.3,271.7,384.3z M267.2,370.1
			h8.8c-0.4-3-1.8-4.5-4.3-4.5C269.2,365.6,267.7,367.1,267.2,370.1z"/>
		<path class="st0" d="M284.2,372.2c0.2-7.3,4.2-10.9,12-10.9h0.8v5.9h-2c-3.3,0-4.9,1.7-4.9,4.9v11.7h-6V372.2z"/>
	</g>
	<path class="st0" d="M245.5,49.4c0-14.7,11.9-26.7,26.7-26.7c14.7,0,26.7,11.9,26.7,26.7c0,14.7-11.9,26.7-26.7,26.7
		C257.4,76.1,245.5,64.1,245.5,49.4"/>
	<path class="st2" d="M257.8,49.4c0-7.9,6.4-14.4,14.4-14.4c7.9,0,14.4,6.4,14.4,14.4c0,7.9-6.4,14.4-14.4,14.4
		C264.2,63.8,257.8,57.4,257.8,49.4"/>
</g>
</svg>
