<svg xmlns="http://www.w3.org/2000/svg" viewBox="0 0 32.7 33.47"><defs><style>.cls-1{fill:#fff;}.cls-1,.cls-2{fill-rule:evenodd;}.cls-2{fill:#47ac4b;}</style></defs><title>Recurso 4</title><g id="Capa_2" data-name="Capa 2"><g id="Calendario"><path class="cls-1" d="M0,16.73V2.44A2.2,2.2,0,0,1,1.61.11,3,3,0,0,1,2.4,0Q13.56,0,24.71,0a5.78,5.78,0,0,1,4,1.58c.79.74,1.57,1.5,2.33,2.27a5.47,5.47,0,0,1,1.66,4c0,7.74,0,15.48,0,23.22a2.24,2.24,0,0,1-2.45,2.42H2.41A2.24,2.24,0,0,1,0,31.05ZM15.52,2.38c-2.41,0-4.82,0-7.22,0A2.36,2.36,0,0,0,5.78,4.88c.06,2.35,0,4.71,0,7.06a3.76,3.76,0,0,0,0,.58,2.23,2.23,0,0,0,2.38,1.83H22.87a2.7,2.7,0,0,0,.75-.09A2.16,2.16,0,0,0,25.26,12c0-2.45,0-4.89,0-7.33a2.56,2.56,0,0,0-.07-.62,2.22,2.22,0,0,0-2.41-1.69Z"/><path class="cls-2" d="M15.52,2.38h7.26a2.22,2.22,0,0,1,2.41,1.69,2.56,2.56,0,0,1,.07.62c0,2.44,0,4.88,0,7.33a2.16,2.16,0,0,1-1.64,2.23,2.7,2.7,0,0,1-.75.09H8.21a2.23,2.23,0,0,1-2.38-1.83,3.76,3.76,0,0,1,0-.58c0-2.35,0-4.71,0-7.06A2.36,2.36,0,0,1,8.3,2.37C10.7,2.41,13.11,2.38,15.52,2.38ZM18.4,8.27h0c0,.65,0,1.3,0,1.94A2.09,2.09,0,0,0,19.3,12a2,2,0,0,0,3.08-1.61c.07-1.37.05-2.75,0-4.12A2,2,0,0,0,20.1,4.27a2.1,2.1,0,0,0-1.7,2C18.38,7,18.4,7.62,18.4,8.27Z"/><path class="cls-1" d="M18.4,8.27c0-.65,0-1.31,0-2a2.1,2.1,0,0,1,1.7-2,2,2,0,0,1,2.28,2c.05,1.37.07,2.75,0,4.12A2,2,0,0,1,19.3,12a2.09,2.09,0,0,1-.9-1.74c0-.64,0-1.29,0-1.94Z"/></g></g></svg>