<svg xmlns="http://www.w3.org/2000/svg" viewBox="0 0 37.08 50.26"><defs><style>.cls-1{fill:none;stroke:#6d6e70;stroke-linecap:round;stroke-linejoin:round;stroke-width:2px;}</style></defs><title>Recurso 8</title><g id="Capa_2" data-name="Capa 2"><g id="Iconos"><rect class="cls-1" x="5.16" y="8.58" width="28.15" height="20.33" transform="translate(-6.58 26.16) rotate(-60.29)"/><polyline class="cls-1" points="33.18 14.69 35.2 15.72 21.25 40.17 4.99 31.01"/><path class="cls-1" d="M3.43,25.93C.14,23.94-.25,27.67,5,31"/><path class="cls-1" d="M17.08,1.51c-1.45-.88-2-.5-2.42.2-1,1.57-13.54,24-13.54,24"/><polyline class="cls-1" points="34.64 19.91 35.92 20.65 21.96 45.09 4.31 35.02 5.39 32.9"/><polyline class="cls-1" points="34.06 23.78 36.09 24.81 22.13 49.26 5.87 40.1"/><path class="cls-1" d="M4.31,35C1,33,.63,36.76,5.92,40.09"/><path class="cls-1" d="M3.75,31.66,2,34.8"/></g></g></svg>