<svg xmlns="http://www.w3.org/2000/svg" xmlns:xlink="http://www.w3.org/1999/xlink" viewBox="0 0 69.03 42.13"><defs><style>.cls-1,.cls-2{fill:none;}.cls-2{stroke:#6d6e70;stroke-linecap:round;stroke-linejoin:round;stroke-width:2px;}.cls-3{clip-path:url(#clip-path);}</style><clipPath id="clip-path" transform="translate(0 -0.6)"><path class="cls-1" d="M25.56,22.2c.38.57,2.1.77,3.46.61a34.31,34.31,0,0,0,5.05-1.11,23,23,0,0,1,5.53-1.06c2.44-.05,4.38,1.26,4.51,3A9.43,9.43,0,0,1,41,31.13a24.55,24.55,0,0,1-2.56,2L49.92,26.4,70,7.19,60.38,0,31,9.81Z"/></clipPath></defs><title>Recurso 1</title><g id="Capa_2" data-name="Capa 2"><g id="Iconos"><path class="cls-2" d="M2.25,32.23s10.12-2.29,12-3.48,3.9-5,5.43-6.81c1.76-2.1,4.81-4.93,6.83-5.75,1.77-.71,2.52,1.31-.47,4-3.23,2.92.73,3.43,2.84,3.18,4-.47,7.23-2.1,10.54-2.16,2,0,3.88,1,4,2.57a9,9,0,0,1-3,7.06A35.78,35.78,0,0,1,28,37.46c-4.23,1.33-11.83.56-11.83.56L1,41.74" transform="translate(0 -0.6)"/><path class="cls-2" d="M42.66,22.57c-1.9,1.22-8.92,3-11.31,3.1" transform="translate(0 -0.6)"/><path class="cls-2" d="M43.06,25.52c-1.59,1.08-8.27,3.12-10.45,3.38" transform="translate(0 -0.6)"/><path class="cls-2" d="M42,28.64c-1.34,1.15-7.93,3.67-9.4,3.65" transform="translate(0 -0.6)"/><g class="cls-3"><path class="cls-2" d="M59.79,1.6S51.73,8.13,49.66,8.83s-6.34,0-8.71.05c-2.74.09-6.85.73-8.73,1.81-1.66,1-.54,2.79,3.44,2.12,4.29-.73,2.23,2.69.73,4.2-2.83,2.83-6.12,4.38-8.22,6.94-1.28,1.55-1.64,3.65-.46,4.74a8.94,8.94,0,0,0,7.4,2A35.71,35.71,0,0,0,48,25c3.67-2.49,7.76-8.95,7.76-8.95L68,6.5" transform="translate(0 -0.6)"/><path class="cls-2" d="M27.17,27.87c2.1-3.47,7.76-5.57,9.31-7.4" transform="translate(0 -0.6)"/><path class="cls-2" d="M29.27,29.51c1.46-2.92,7.85-5,9.4-6.57" transform="translate(0 -0.6)"/><path class="cls-2" d="M32.37,30.61c1.26-1.89,7.87-4.4,8.76-5.57" transform="translate(0 -0.6)"/></g></g></g></svg>