<svg xmlns="http://www.w3.org/2000/svg" viewBox="0 0 54.46 40.61"><defs><style>.cls-1{fill:#fff;stroke:#6d6e70;stroke-linecap:round;stroke-linejoin:round;stroke-width:2px;}</style></defs><title>svgRecurso 16</title><g id="Capa_2" data-name="Capa 2"><g id="Iconos"><path class="cls-1" d="M34.9,10.14A9.14,9.14,0,1,1,25.76,1,9.14,9.14,0,0,1,34.9,10.14Z"/><polygon class="cls-1" points="35.54 39.61 15.99 39.61 18.42 21.57 33.1 21.57 35.54 39.61"/><polyline class="cls-1" points="19.87 23.1 22.97 25.06 25.51 22.53 28.04 25.06 31.44 22.8"/><path class="cls-1" d="M8.36,25.87c-.3,3.24-.55,4.76-2.65,6.48-.26.21-.5.42-.72.62"/><path class="cls-1" d="M15.32,15.21A7.46,7.46,0,1,1,1,18.12a7.38,7.38,0,0,1,1-3.73"/><path class="cls-1" d="M2.52,32.32A2,2,0,0,1,6,33.63a2,2,0,0,1-.77,1.57Z"/><polygon class="cls-1" points="46.61 28.78 53.46 31.78 51 24.71 46.61 28.78"/><polygon class="cls-1" points="50.51 30.49 53.46 31.78 52.4 28.74 50.51 30.49"/><rect class="cls-1" x="42.1" y="17.28" width="5.99" height="10.92" transform="translate(-3.44 36.69) rotate(-42.79)"/><path class="cls-1" d="M37.92,15c2.45-2.27,4.6.56,4.6.56l-4.4,4.07S35.46,17.26,37.92,15Z"/><rect class="cls-1" x="37.86" y="17.38" width="5.99" height="1.56" transform="translate(-1.47 32.57) rotate(-42.77)"/></g></g></svg>