<svg xmlns="http://www.w3.org/2000/svg" viewBox="0 0 54.22 40.91"><defs><style>.cls-1,.cls-2,.cls-3,.cls-4{fill:none;stroke:#6d6e70;stroke-width:2px;}.cls-1,.cls-2{stroke-miterlimit:10;}.cls-2,.cls-3,.cls-4{stroke-linecap:round;}.cls-3,.cls-4{stroke-linejoin:round;}.cls-3{stroke-dasharray:4 4;}</style></defs><title>Recurso 9</title><g id="Capa_2" data-name="Capa 2"><g id="Iconos"><path class="cls-1" d="M22.8,1.65a2.17,2.17,0,0,1,3.14,0L37,13.64a2.17,2.17,0,1,1-3.18,2.94l-7.13-7.7.23,28.84a2.17,2.17,0,0,1-2.14,2.19,2.22,2.22,0,0,1-1.53-.61,2.18,2.18,0,0,1-.66-1.53L22.35,8.32l-7.73,7.92a2.17,2.17,0,0,1-3,.05h0a2.18,2.18,0,0,1,0-3.07Z"/><path class="cls-2" d="M31.16,38.69,31,32.14c.5-9,6-13.57,11.23-13.67H52.4"/><polyline class="cls-2" points="46.8 24.39 52.8 18.46 46.74 12.46"/><path class="cls-3" d="M17.61,39.36l.13-6C17,24.41,11.41,20,6.16,20L1.4,20"/><polyline class="cls-4" points="7.15 25.8 1 20.03 6.9 13.87"/></g></g></svg>