<svg xmlns="http://www.w3.org/2000/svg" viewBox="0 0 42.05 54.69"><defs><style>.cls-1,.cls-2{fill:none;stroke:#6d6e70;stroke-width:2px;}.cls-1{stroke-linecap:round;stroke-linejoin:round;}.cls-2{stroke-miterlimit:10;}</style></defs><title>Recurso 13</title><g id="Capa_2" data-name="Capa 2"><g id="Iconos"><polyline class="cls-1" points="28.11 21.13 35.04 25.08 21.09 49.53 3.43 39.46 17.38 15.01 24.59 19.12"/><polyline class="cls-1" points="33.18 28.21 35.2 29.25 21.25 53.7 4.99 44.54"/><path class="cls-1" d="M3.43,39.46C.14,37.47-.25,41.19,5,44.52"/><path class="cls-1" d="M17.09,15c-1.46-.88-2-.5-2.43.2-1,1.57-13.54,24-13.54,24"/><path class="cls-2" d="M34.53,1.1a2,2,0,0,1,1.58.15,2,2,0,0,1,1,1.26L41,17.2a2,2,0,1,1-3.91,1L34.56,8.76,22.12,32.63a2,2,0,0,1-2.73.87,2,2,0,0,1-.87-2.73L31.24,6.39,21.39,9.54a2,2,0,0,1-2.54-1.3v0a2,2,0,0,1,1.31-2.54Z"/></g></g></svg>