<svg xmlns="http://www.w3.org/2000/svg" viewBox="0 0 51.35 41.06"><defs><style>.cls-1{fill:none;stroke:#6d6e70;stroke-linecap:round;stroke-linejoin:round;stroke-width:2px;}</style></defs><title>Recurso 7</title><g id="Capa_2" data-name="Capa 2"><g id="Iconos"><path class="cls-1" d="M22.35,26.83H43.07c3.1,0,4.6,1.05,4.6,3"/><path class="cls-1" d="M30.75,29.84H47.23c1.5,0,3.12.67,3.12,2.25s-1.41,2-2.9,2h-.9"/><path class="cls-1" d="M30.38,33.06H43.82c1.51,0,3.13.67,3.13,2.25s-1.41,2-2.91,2H41.57"/><path class="cls-1" d="M3.15,28l9.5-.14c1.1-1.1,1.95-3.9,7.52-3.9h7c5,0,6.12,1.9,6.12,2.67"/><path class="cls-1" d="M26.7,36.48H38.59c1.51,0,3.13,0,3.13,1.56s-2.64,2-4.13,2H18.07c-7.87,0-5.69-1.66-8.12-1.66L1,38.43"/><path class="cls-1" d="M34.06,8.72A7.72,7.72,0,1,1,26.34,1,7.71,7.71,0,0,1,34.06,8.72Z"/><path class="cls-1" d="M34.67,33.61H18.15l1.77-12.46a3,3,0,0,1,3.14-2.77h7.25c1.42,0,2.35,1,2.67,2.77Z"/><path class="cls-1" d="M30.31,18.49c0,1.47-1.62,2.66-3.62,2.66S23.06,20,23.06,18.49"/></g></g></svg>