<svg xmlns="http://www.w3.org/2000/svg" viewBox="0 0 49.15 37.5"><defs><style>.cls-1{fill:none;stroke:#6d6e70;stroke-linecap:round;stroke-linejoin:round;stroke-width:2px;}</style></defs><title>Recurso 4</title><g id="Capa_2" data-name="Capa 2"><g id="Iconos"><line class="cls-1" x1="2.26" y1="5.72" x2="47.33" y2="1"/><line class="cls-1" x1="24.91" y1="5.53" x2="24.91" y2="28.77"/><path class="cls-1" d="M17.48,36.5a7.43,7.43,0,0,1,14.86,0"/><polygon class="cls-1" points="6.08 6.97 8.63 17.49 11.17 28 6.08 28 1 28 3.54 17.49 6.08 6.97"/><path class="cls-1" d="M11.16,28c0,1.66-2.27,3-5.08,3S1,29.66,1,28"/><polygon class="cls-1" points="43.07 3.1 45.61 13.61 48.15 24.13 43.07 24.13 37.98 24.13 40.53 13.61 43.07 3.1"/><path class="cls-1" d="M48.15,24.12c0,1.67-2.28,3-5.08,3S38,25.79,38,24.12"/></g></g></svg>