<svg xmlns="http://www.w3.org/2000/svg" viewBox="0 0 43.76 39.29"><defs><style>.cls-1{fill:none;stroke:#6d6e70;stroke-linecap:round;stroke-linejoin:round;stroke-width:2px;}</style></defs><title>Recurso 14</title><g id="Capa_2" data-name="Capa 2"><g id="Iconos"><path class="cls-1" d="M42.68,29.27a4.38,4.38,0,0,0-1-2.82,12.13,12.13,0,0,0,1.11-3.57c0-1.23-1.55-2.56-1.55-2.56a9.86,9.86,0,0,0,.64-2.63,4.17,4.17,0,0,0-1.07-2.16c-3.64-1-9.22-.63-10.94,0,2.4-3.15,1.8-8.48.87-10.17s-3.15-5.6-6.23-4c0,0,1.75,4.41,1.75,6.69,0,1.51-4.22,5.93-6.95,7.45l-7.56,4.26V34.5a57.66,57.66,0,0,0,7.56,3c2.91.77,18.37,1.55,21.5-.41a3.7,3.7,0,0,0,.87-2.21,8.21,8.21,0,0,0-.48-2.51A4.7,4.7,0,0,0,42.68,29.27Z"/><rect class="cls-1" x="1" y="17.46" width="10.72" height="19.46"/></g></g></svg>