<?xml version="1.0" encoding="utf-8"?>
<!-- Generator: Adobe Illustrator 19.2.1, SVG Export Plug-In . SVG Version: 6.00 Build 0)  -->
<svg version="1.1" id="Layer_1" xmlns="http://www.w3.org/2000/svg" xmlns:xlink="http://www.w3.org/1999/xlink" x="0px" y="0px"
	 viewBox="0 0 57.4 57.8" style="enable-background:new 0 0 57.4 57.8;" xml:space="preserve">
<style type="text/css">
	.st0{fill:#FFFFFF;}
	.st1{fill:none;stroke:#FFFFFF;stroke-miterlimit:10;}
</style>
<path class="st0" d="M48.2,16.7c-1.4,0.6-2.9,1-4.5,1.2c1.6-1,2.8-2.5,3.4-4.3c-1.5,0.9-3.2,1.5-4.9,1.9c-1.4-1.5-3.4-2.4-5.7-2.4
	c-4.3,0-7.8,3.5-7.8,7.7c0,0.6,0.1,1.2,0.2,1.8c-6.5-0.3-12.2-3.4-16.1-8.1c-0.7,1.1-1.1,2.5-1.1,3.9c0,2.7,1.4,5.1,3.5,6.4
	c-1.3,0-2.5-0.4-3.5-1V24c0,3.7,2.7,6.9,6.2,7.6c-0.7,0.2-1.3,0.3-2.1,0.3c-0.5,0-1-0.1-1.5-0.1c1,3.1,3.9,5.3,7.3,5.4
	c-2.7,2.1-6,3.3-9.7,3.3c-0.6,0-1.2,0-1.9-0.1c3.5,2.2,7.5,3.5,11.9,3.5c14.3,0,22.2-11.8,22.2-22c0-0.3,0-0.7,0-1
	C45.8,19.6,47.1,18.3,48.2,16.7"/>
<circle class="st1" cx="29.2" cy="28.4" r="28.4"/>
</svg>
