<?xml version="1.0" encoding="utf-8"?>
<!-- Generator: Adobe Illustrator 20.1.0, SVG Export Plug-In . SVG Version: 6.00 Build 0)  -->
<svg version="1.1" id="Layer_1" xmlns="http://www.w3.org/2000/svg" xmlns:xlink="http://www.w3.org/1999/xlink" x="0px" y="0px"
	 viewBox="0 0 42.6 142.5" style="enable-background:new 0 0 42.6 142.5;" xml:space="preserve">
<style type="text/css">
	.st0{fill:#FFFFFF;}
</style>
<g>
	<path class="st0" d="M29,0c1.8,0,2.8,0.7,2.9,2c0.1,1.4-0.6,2.2-2.1,2.6c-1.5,0.2-3.2,0.4-5.1,0.5c-1.9,0.2-3.9,0.4-5.8,0.7
		c-1.9,0.3-3.7,0.6-5.1,1c-1.5,0.4-2.5,0.8-3.1,1.4c-0.7,0.7-1.5,4-2.2,9.8C7.7,23.8,7,30.9,6.5,39.4C5.9,47.8,5.5,57,5.2,67
		C4.9,77,5,86.5,5.3,95.5c0.4,9,1.1,16.9,2.1,23.8c1,6.9,2.6,11.4,4.9,13.6c1.1,1.1,2.9,1.9,5.4,2.3c2.5,0.5,5.2,0.8,8.1,1.1
		c2.9,0.3,5.6,0.5,8.3,0.5c2.7,0.1,4.8,0.1,6.3,0.1c1.5,0.4,2.2,1.3,2.2,2.7c0,1.5-0.8,2.4-2.5,2.7c-2.6-0.2-5.5-0.4-8.6-0.5
		c-3.2-0.2-6.2-0.5-9.2-0.8c-3-0.4-5.7-0.8-8.1-1.4c-2.4-0.5-4.3-1.3-5.6-2.2c-2.4-1.8-4.2-6-5.4-12.7c-1.2-6.6-2.1-14.5-2.6-23.7
		c-0.6-9.2-0.7-19-0.6-29.4c0.2-10.4,0.5-20.2,1-29.4c0.5-9.2,1.1-17.2,1.8-24C3.6,11.6,4.3,7.3,5.1,5.4c0.4-1.1,1.8-2,4.2-2.7
		c2.4-0.7,5-1.3,7.8-1.6c2.8-0.4,5.4-0.6,7.8-0.8C27.2,0.1,28.6,0,29,0z"/>
</g>
</svg>
