<?xml version="1.0" encoding="utf-8"?>
<!-- Generator: Adobe Illustrator 20.1.0, SVG Export Plug-In . SVG Version: 6.00 Build 0)  -->
<svg version="1.1" id="Layer_1" xmlns="http://www.w3.org/2000/svg" xmlns:xlink="http://www.w3.org/1999/xlink" x="0px" y="0px"
	 viewBox="0 0 42.6 142.5" style="enable-background:new 0 0 42.6 142.5;" xml:space="preserve">
<style type="text/css">
	.st0{fill:#FFFFFF;}
</style>
<g>
	<path class="st0" d="M17.8,0.3c2.4,0.2,5,0.5,7.8,0.8c2.8,0.4,5.4,0.9,7.8,1.6c2.4,0.7,3.8,1.6,4.2,2.7c0.7,1.8,1.5,6.1,2.2,12.9
		c0.7,6.8,1.3,14.8,1.8,24c0.5,9.2,0.8,19,1,29.4c0.2,10.4,0,20.3-0.6,29.4c-0.6,9.2-1.4,17.1-2.6,23.7c-1.2,6.6-3,10.9-5.4,12.7
		c-1.3,0.9-3.1,1.6-5.6,2.2c-2.4,0.5-5.1,1-8.1,1.4c-3,0.4-6,0.6-9.2,0.8c-3.1,0.2-6,0.4-8.6,0.5c-1.7-0.4-2.5-1.3-2.5-2.7
		c0-1.5,0.7-2.4,2.2-2.7c1.5,0,3.6,0,6.3-0.1c2.7-0.1,5.5-0.3,8.3-0.5c2.9-0.3,5.6-0.6,8.1-1.1s4.3-1.2,5.4-2.3
		c2.2-2.2,3.8-6.7,4.9-13.6c1-6.9,1.7-14.8,2.1-23.8c0.4-9,0.4-18.5,0.1-28.5c-0.3-10-0.7-19.2-1.2-27.7c-0.6-8.4-1.2-15.6-1.9-21.4
		c-0.7-5.8-1.5-9.1-2.2-9.8c-0.6-0.5-1.6-1-3.1-1.4c-1.5-0.4-3.2-0.7-5.1-1c-1.9-0.3-3.9-0.5-5.8-0.7C16,5,14.3,4.8,12.8,4.6
		c-1.5-0.4-2.2-1.2-2.1-2.6c0.1-1.4,1.1-2,2.9-2C14,0,15.4,0.1,17.8,0.3z"/>
</g>
</svg>
